<?xml version="1.0"?>
<!DOCTYPE svg PUBLIC "-//W3C//DTD SVG 1.1//EN" "http://www.w3.org/Graphics/SVG/1.1/DTD/svg11.dtd">
<svg xmlns="http://www.w3.org/2000/svg" width="12cm" height="2cm">
 <g fill="#ffffff">
  <rect x="0" y="0" width="200" height="100"/>
  <g fill="none" stroke="#000000" stroke-width="2">
   <polyline points="105,37 105,37 105,38 104,38 103,38 101,37 100,35 99,32 97,29 96,28 95,26 95,24 95,23 95,22 95,21 95,22 95,23 94,24 93,25 92,26 91,27 89,27 87,27 85,27 83,27 82,26 81,26 81,25 81,24 81,23 81,22 81,21 82,21 83,21 84,21 85,23 86,25 86,28 87,30 87,33 87,35 87,38 87,41 85,43 84,43 82,44 80,44 77,44 76,44 74,43 72,41 71,39 70,38 70,37 70,36 70,35 70,34 73,32 76,30 79,29 81,29 84,29 86,30 87,31 88,34 88,35 89,38 89,41 89,44 89,47 87,49 85,52 83,55 80,56 77,57 74,58 73,58 72,58 71,58 70,58 70,57 70,56 70,55 69,55 68,55 68,54 67,53 67,52 66,52 65,51 65,50 64,50 63,49 62,48 62,47 61,47 60,47 62,49 65,50 68,52 71,54 74,56 77,57 80,59 82,60 85,61 86,62 88,63 88,64 89,64 90,64 91,64 91,65"/>
  </g>
 </g>
</svg>